<svg xmlns="http://www.w3.org/2000/svg" xmlns:xlink="http://www.w3.org/1999/xlink" viewBox="0 0 78 97.5" version="1.1" x="0px" y="0px"><title>Settings</title><g stroke="none" stroke-width="1" fill="none" fill-rule="evenodd"><path d="M48,54 L48,60 L42,60 L42,66 L36,66 L36,60 L30,60 L30,54 L48,54 Z M60,54 L60,60 L54,60 L54,54 L60,54 Z M24,54 L24,60 L18,60 L18,54 L24,54 Z M54,48 L54,54 L48,54 L48,48 L54,48 Z M30,48 L30,54 L24,54 L24,48 L30,48 Z M60,30 L60,36 L66,36 L66,42 L60,42 L60,48 L54,48 L54,30 L60,30 Z M24,30 L24,48 L18,48 L18,42 L12,42 L12,36 L18,36 L18,30 L24,30 Z M42,36 L42,42 L36,42 L36,36 L42,36 Z M54,24 L54,30 L48,30 L48,24 L54,24 Z M30,24 L30,30 L24,30 L24,24 L30,24 Z M42,12 L42,18 L48,18 L48,24 L30,24 L30,18 L36,18 L36,12 L42,12 Z M60,18 L60,24 L54,24 L54,18 L60,18 Z M24,18 L24,24 L18,24 L18,18 L24,18 Z" fill="#000000"/></g><text x="0" y="93" fill="#000000" font-size="5px" font-weight="bold" font-family="'Helvetica Neue', Helvetica, Arial-Unicode, Arial, Sans-serif">Created by Mikkel Mikkelsen</text><text x="0" y="98" fill="#000000" font-size="5px" font-weight="bold" font-family="'Helvetica Neue', Helvetica, Arial-Unicode, Arial, Sans-serif">from the Noun Project</text></svg>